|C-401v64X28|E-601v54X50|C-401v56...|C-303v44...
|...........|...........|...........|...........
|...........|...........|...........|...........
|...........|...........|===01......|...........
|...........|...........|...........|...........
|...........|...........|...........|...........
|...........|...........|C-401v38...|...........
|...........|...........|...........|...........
|...........|...........|...........|...........
|...........|...........|===01......|...........
|...........|...........|...........|...........
|...........|...........|...........|...........
|...........|.....v40...|C-501v56...|===........
|...........|...........|...........|...........
|...........|...........|...........|...........
|...........|...........|===01......|...........
|........F01|........F01|...........|...........
|...........|...........|...........|...........
|...........|...........|C-501v56...|A-803v30...
|...........|...........|...........|...........
|........E02|........E02|...........|...........
|...........|...........|===01......|...........
|...........|...........|...........|...........
|...........|...........|...........|...........
|........F02|.....v32F02|C-401v56...|A#403v44...
|...........|...........|...........|...........
|...........|...........|...........|...........
|...........|...........|===01......|...........
|........E02|........E02|...........|...........
|...........|...........|...........|...........
|...........|...........|C-401v56...|...........
|...........|...........|...........|...........
|........F02|........F02|...........|...........
|...........|...........|===01......|...........
|...........|...........|...........|...........
|...........|...........|...........|...........
|F#401v64...|B-601......|C-501v56...|A-803v44...
|...........|...........|...........|...........
|...........|...........|...........|...........
|...........|...........|===01......|...........
|...........|...........|...........|...........
|...........|...........|...........|...........
|...........|...........|C-501v56...|A-803v30...
|...........|...........|...........|...........
|...........|...........|...........|...........
|...........|...........|===01......|...........
|...........|...........|...........|...........
|...........|...........|...........|...........
|...........|.....v40...|C-401v56...|C-303v44...
|...........|...........|...........|...........
|...........|...........|...........|...........
|...........|...........|===01......|...........
|........F01|........F01|...........|...........
|...........|...........|...........|...........
|...........|...........|C-401v56...|...........
|...........|...........|...........|...........
|........E02|........E02|...........|...........
|...........|...........|===01......|...........
|...........|...........|...........|...........
|...........|...........|...........|...........
|........F02|.....v32F02|C-501v56...|A-803v44...
|...........|...........|...........|...........
|...........|...........|...........|...........
|...........|...........|===01......|...........
|........E02|........E02|...........|...........
|...........|...........|...........|...........
|...........|...........|C-501v56...|A-803v30...
|...........|...........|...........|...........
|........F02|........F02|...........|...........
|...........|...........|===01......|...........
|...........|...........|...........|...........
|...........|...........|...........|...........
|G-401v64...|A-601v54...|C-401v56...|A#403v44...
|...........|...........|...........|...........
|...........|...........|...........|...........
|...........|...........|===01......|...........
|...........|...........|...........|...........
|...........|...........|...........|...........
|...........|...........|C-401v56...|...........
|...........|...........|...........|...........
|...........|...........|...........|...........
|...........|...........|===01......|...........
|...........|...........|...........|...........
|...........|...........|...........|...........
|...........|.....v40...|C-501v56...|A-803v44...
|...........|...........|...........|...........
|...........|...........|...........|...........
|...........|...........|===01......|...........
|........F01|........F01|...........|...........
|...........|...........|...........|...........
|...........|...........|C-501v56...|A-803v30...
|...........|...........|...........|...........
|........E02|........E02|...........|...........
|...........|...........|===01......|...........
|...........|...........|...........|...........
|...........|...........|...........|...........
|........F02|.....v32F02|C-401v56...|C-303v44...
|...........|...........|...........|...........
|...........|...........|...........|...........
|...........|...........|===01......|...........
|........E02|........E02|...........|...........
|...........|...........|...........|...........
|...........|...........|C-401v38...|...........
|...........|...........|...........|...........
|........F02|........F02|...........|...........
|...........|...........|===01......|...........
|...........|...........|...........|...........
|...........|...........|...........|...........
|A-401v64...|E-601v54...|C-501v56...|A-803v44...
|...........|...........|...........|...........
|...........|...........|...........|...........
|...........|...........|===01......|...........
|...........|...........|...........|...........
|...........|...........|...........|...........
|...........|...........|C-501v56...|A-803v30...
|...........|...........|...........|...........
|...........|...........|...........|...........
|...........|...........|===01......|...........
|...........|...........|...........|...........
|...........|...........|...........|...........
|...........|G-601v36...|C-401v56...|A#403v44...
|...........|...........|...........|...........
|...........|...........|...........|...........
|...........|...........|===01......|...........
|........F01|...........|...........|...........
|...........|...........|...........|...........
|...........|...........|C-401v56...|...........
|...........|...........|...........|...........
|........E02|...........|...........|...........
|...........|...........|===01......|...........
|...........|...........|...........|...........
|...........|...........|...........|...........
|........F02|E-601v36...|C-501v56...|A-803v44...
|...........|...........|...........|...........
|...........|...........|...........|...........
|...........|...........|===01......|...........
|........E02|...........|...........|...........
|...........|...........|...........|...........
|...........|...........|C-501v56...|A-803v30...
|...........|...........|...........|...........
|........F02|...........|...........|...........
|...........|...........|===01......|...........
|...........|...........|...........|...........
|...........|...........|...........|...........
|G-401v64...|B-501v36...|C-401v56...|C-303v44...
|...........|...........|...........|...........
|...........|...........|...........|...........
|...........|...........|===01......|...........
|...........|...........|...........|...........
|...........|...........|...........|...........
|...........|...........|C-401v56...|...........
|...........|...........|...........|...........
|...........|...........|...........|...........
|...........|...........|===01......|...........
|...........|...........|...........|...........
|...........|...........|...........|...........
|...........|A-501v36...|C-501v56...|A-803v44...
|...........|...........|...........|...........
|...........|...........|...........|...........
|...........|...........|===01......|...........
|........F01|...........|...........|...........
|...........|...........|...........|...........
|...........|...........|C-501v56...|A-803v30...
|...........|...........|...........|...........
|........E02|...........|...........|...........
|...........|...........|===01......|...........
|...........|...........|...........|...........
|...........|...........|...........|...........
|F#401v64...|G-501v36...|C-401v56...|A#403v44...
|...........|...........|...........|...........
|...........|...........|...........|...........
|...........|...........|===01......|...........
|...........|...........|...........|...........
|...........|...........|...........|...........
|...........|...........|C-401v56...|...........
|...........|...........|...........|...........
|...........|...........|...........|...........
|...........|...........|===01......|...........
|...........|...........|...........|...........
|...........|...........|...........|...........
|...........|A-501v54...|C-501v56...|A-803v44...
|...........|...........|...........|...........
|...........|...........|...........|...........
|...........|...........|===01......|...........
|........F01|...........|...........|...........
|...........|...........|...........|...........
|...........|...........|C-501v56...|A-803v30...
|...........|...........|...........|...........
|........E02|...........|...........|...........
|...........|...........|===01......|...........
|...........|...........|...........|...........
|...........|...........|...........|...........
|E-401v64...|B-501v54...|A-301v56...|C-303v44...
|...........|...........|...........|...........
|...........|...........|...........|...........
|...........|...........|===01......|...........
|...........|...........|...........|...........
|...........|...........|...........|...........
|...........|...........|A-301v38...|...........
|...........|...........|...........|...........
|...........|...........|...........|...........
|...........|...........|===01......|...........
|...........|...........|...........|...........
|...........|...........|...........|...........
|...........|.....v40...|A-401v56...|A-803v44...
|...........|...........|...........|...........
|...........|...........|...........|...........
|...........|...........|===01......|...........
|........F01|........F01|...........|...........
|...........|...........|...........|...........
|...........|...........|A-401v56...|A-803v30...
|...........|...........|...........|...........
|........E02|........E02|...........|...........
|...........|...........|===01......|...........
|...........|...........|...........|...........
|...........|...........|...........|...........
|D-401v64...|E-601v54...|A-301v56...|A#403v44...
|...........|...........|...........|...........
|...........|...........|...........|...........
|...........|...........|===01......|...........
|...........|...........|...........|...........
|...........|...........|...........|...........
|...........|...........|A-301v56...|...........
|...........|...........|...........|...........
|...........|...........|...........|...........
|...........|...........|===01......|...........
|...........|...........|...........|...........
|...........|...........|...........|...........
|E-401v64...|B-501v54...|A-401v56...|A-803v44...
|...........|...........|...........|...........
|...........|...........|...........|...........
|...........|...........|===01......|...........
|...........|...........|...........|...........
|...........|...........|...........|...........
|...........|...........|A-401v56...|A-803v30...
|...........|...........|...........|...........
|...........|...........|...........|...........
|...........|...........|===01......|...........
|...........|...........|...........|...........
|...........|...........|...........|...........
|...........|===01......|A-301v56...|C-303v44...
|...........|...........|...........|...........
|...........|...........|...........|...........
|...........|...........|===01......|...........
|........F01|...........|...........|...........
|...........|...........|...........|...........
|...........|...........|A-301v56...|...........
|...........|...........|...........|...........
|........E02|...........|...........|...........
|...........|...........|===01......|...........
|...........|...........|...........|...........
|...........|...........|...........|...........
|D-401v64...|A-501v54...|A-401v56...|A-803v44...
|...........|...........|...........|...........
|...........|...........|...........|...........
|...........|...........|===01......|...........
|...........|...........|...........|...........
|...........|...........|...........|...........
|...........|...........|A-401v56...|A-803v30...
|...........|...........|...........|...........
|...........|...........|...........|...........
|...........|...........|===01......|...........
|...........|...........|...........|...........
|...........|...........|...........|...........
|E-401v64...|B-501v54...|A-301v56...|A#403v44...
|...........|...........|...........|...........
|...........|...........|...........|...........
|...........|...........|===01......|...........
|...........|...........|...........|...........
|...........|...........|...........|...........
|...........|...........|A-301v56...|...........
|...........|...........|...........|...........
|...........|...........|...........|...........
|...........|...........|===01......|...........
|...........|...........|...........|...........
|...........|...........|...........|...........
|...........|.....v40...|A-401v56...|A-803v44...
|...........|...........|...........|...........
|...........|...........|...........|...........
|...........|...........|===01......|...........
|........F01|........F01|...........|...........
|...........|...........|...........|...........
|...........|...........|A-401v56...|A-803v30...
|...........|...........|...........|...........
|........E02|........E02|...........|...........
|...........|...........|===01......|...........
|...........|...........|...........|...........
|...........|...........|...........|...........
|........F02|.....v32F02|A-301v56...|C-303v44...
|...........|...........|...........|...........
|...........|...........|...........|...........
|...........|...........|===01......|...........
|........E02|........E02|...........|...........
|...........|...........|...........|...........
|...........|...........|A-301v38...|...........
|...........|...........|...........|...........
|........F02|........F02|...........|...........
|...........|...........|===01......|...........
|...........|...........|...........|...........
|...........|...........|...........|...........
|E-601v64...|B-401v64...|A-401v56...|A-803v44...
|...........|...........|...........|...........
|...........|...........|...........|...........
|...........|...........|===01......|...........
|...........|...........|...........|...........
|...........|...........|...........|...........
|===01......|===01......|A-401v56...|A-803v30...
|...........|...........|...........|...........
|...........|...........|...........|...........
|...........|...........|===01......|...........
|...........|...........|...........|...........
|...........|...........|...........|...........
|D-601v64...|A-401v64...|A-301v56...|A#403v44...
|...........|...........|...........|...........
|...........|...........|...........|...........
|...........|...........|===01......|...........
|E-601v64...|B-401v64...|...........|...........
|...........|...........|...........|...........
|...........|...........|A-301v56...|...........
|...........|...........|...........|...........
|D-601v64...|A-401v64...|...........|...........
|...........|...........|===01......|...........
|...........|...........|...........|...........
|...........|...........|...........|...........
|B-501v64...|F#401v64...|A-401v56...|A-803v44...
|...........|...........|...........|...........
|...........|...........|...........|...........
|...........|...........|===01......|...........
|...........|...........|...........|...........
|...........|...........|...........|...........
|===01......|===01......|A-401v56...|A-803v30...
|...........|...........|...........|...........
|...........|...........|...........|...........
|...........|...........|===01......|...........
|...........|...........|...........|...........
|...........|...........|...........|...........
|A-501v64...|E-401v64...|A-301v56...|C-303v44...
|...........|...........|...........|...........
|...........|...........|...........|...........
|...........|...........|===01......|...........
|...........|...........|...........|...........
|...........|...........|...........|...........
|===01......|===01......|A-301v56...|...........
|...........|...........|...........|...........
|...........|...........|...........|...........
|...........|...........|===01......|...........
|...........|...........|...........|...........
|...........|...........|...........|...........
|G-501v64...|D-401v64...|A-401v56...|A-803v44...
|...........|...........|...........|...........
|...........|...........|...........|...........
|...........|...........|===01......|...........
|...........|...........|...........|...........
|...........|...........|...........|...........
|===01......|===01......|A-401v56...|A-803v30...
|...........|...........|...........|...........
|...........|...........|...........|...........
|...........|...........|===01......|...........
|...........|...........|...........|...........
|...........|...........|...........|...........
|E-501v64...|B-301v64...|A-301v56...|A#403v44...
|...........|...........|...........|...........
|...........|...........|...........|...........
|...........|...........|===01......|...........
|...........|...........|...........|...........
|...........|...........|...........|...........
|===01......|===01......|A-301v56...|...........
|...........|...........|...........|...........
|...........|...........|...........|...........
|...........|...........|===01......|...........
|...........|...........|...........|...........
|...........|...........|...........|...........
|D-501v64...|A-301v64...|A-401v56...|A-803v44...
|...........|...........|...........|...........
|...........|...........|...........|...........
|...........|...........|===01......|...........
|...........|...........|...........|...........
|...........|...........|...........|...........
|===01......|===01......|A-401v56...|A-803v30...
|...........|...........|...........|...........
|...........|...........|...........|...........
|...........|...........|===01......|...........
|...........|...........|...........|...........
|...........|...........|...........|...........
|C-501v64...|E-601v54...|C-401v56...|C-303v44...
|...........|...........|...........|...........
|...........|...........|...........|...........
|...........|...........|===01......|...........
|...........|...........|...........|...........
|...........|...........|...........|...........
|...........|...........|C-401v38...|...........
|...........|...........|...........|...........
|...........|...........|...........|...........
|...........|...........|===01......|...........
|...........|...........|...........|...........
|...........|...........|...........|...........
|...........|.....v40...|C-501v56...|A-803v44...
|...........|...........|...........|...........
|...........|...........|...........|...........
|...........|...........|===01......|...........
|........F01|........F01|...........|...........
|...........|...........|...........|...........
|...........|...........|C-501v56...|A-803v30...
|...........|...........|...........|...........
|........E02|........E02|...........|...........
|...........|...........|===01......|...........
|...........|...........|...........|...........
|...........|...........|...........|...........
|........F02|.....v32F02|C-401v56...|A#403v44...
|...........|...........|...........|...........
|...........|...........|...........|...........
|...........|...........|===01......|...........
|........E02|........E02|...........|...........
|...........|...........|...........|...........
|...........|...........|C-401v56...|...........
|...........|...........|...........|...........
|........F02|........F02|...........|...........
|...........|...........|===01......|...........
|...........|...........|...........|...........
|...........|...........|...........|...........
|F#401v64...|B-601v54...|C-501v56...|A-803v44...
|...........|...........|...........|...........
|...........|...........|...........|...........
|...........|...........|===01......|...........
|...........|...........|...........|...........
|...........|...........|...........|...........
|...........|...........|C-501v56...|A-803v30...
|...........|...........|...........|...........
|...........|...........|...........|...........
|...........|...........|===01......|...........
|...........|...........|...........|...........
|...........|...........|...........|...........
|...........|.....v40...|C-401v56...|C-303v44...
|...........|...........|...........|...........
|...........|...........|...........|...........
|...........|...........|===01......|...........
|........F01|........F01|...........|...........
|...........|...........|...........|...........
|...........|...........|C-401v56...|...........
|...........|...........|...........|...........
|........E02|........E02|...........|...........
|...........|...........|===01......|...........
|...........|...........|...........|...........
|...........|...........|...........|...........
|........F02|.....v32F02|C-501v56...|A-803v44...
|...........|...........|...........|...........
|...........|...........|...........|...........
|...........|...........|===01......|...........
|........E02|........E02|...........|...........
|...........|...........|...........|...........
|...........|...........|C-501v56...|A-803v30...
|...........|...........|...........|...........
|........F02|........F02|...........|...........
|...........|...........|===01......|...........
|...........|...........|...........|...........
|...........|...........|...........|...........
|G-401v64...|A-601v54...|C-401v56...|A#403v44...
|...........|...........|...........|...........
|...........|...........|...........|...........
|...........|...........|===01......|...........
|...........|...........|...........|...........
|...........|...........|...........|...........
|...........|...........|C-401v56...|...........
|...........|...........|...........|...........
|...........|...........|...........|...........
|...........|...........|===01......|...........
|...........|...........|...........|...........
|...........|...........|...........|...........
|...........|.....v40...|C-501v56...|A-803v44...
|...........|...........|...........|...........
|...........|...........|...........|...........
|...........|...........|===01......|...........
|........F01|........F01|...........|...........
|...........|...........|...........|...........
|...........|...........|C-501v56...|A-803v30...
|...........|...........|...........|...........
|........E02|........E02|...........|...........
|...........|...........|===01......|...........
|...........|...........|...........|...........
|...........|...........|...........|...........
|........F02|.....v32F02|C-401v56...|C-303v44...
|...........|...........|...........|...........
|...........|...........|...........|...........
|...........|...........|===01......|...........
|........E02|........E02|...........|...........
|...........|...........|...........|...........
|...........|...........|C-401v38...|...........
|...........|...........|...........|...........
|........F02|........F02|...........|...........
|...........|...........|===01......|...........
|...........|...........|...........|...........
|...........|...........|...........|...........
|A-401v64...|E-601v54...|C-501v56...|A-803v44...
|...........|...........|...........|...........
|...........|...........|...........|...........
|...........|...........|===01......|...........
|...........|...........|...........|...........
|...........|...........|...........|...........
|...........|...........|C-501v56...|A-803v30...
|...........|...........|...........|...........
|...........|...........|...........|...........
|...........|...........|===01......|...........
|...........|...........|...........|...........
|...........|...........|...........|...........
|...........|G-601v36...|C-401v56...|A#403v44...
|...........|...........|...........|...........
|...........|...........|...........|...........
|...........|...........|===01......|...........
|........F01|...........|...........|...........
|...........|...........|...........|...........
|...........|...........|C-401v56...|...........
|...........|...........|...........|...........
|........E02|...........|...........|...........
|...........|...........|===01......|...........
|...........|...........|...........|...........
|...........|...........|...........|...........
|........F02|E-601v36...|C-501v56...|A-803v44...
|...........|...........|...........|...........
|...........|...........|...........|...........
|...........|...........|===01......|...........
|........E02|...........|...........|...........
|...........|...........|...........|...........
|...........|...........|C-501v56...|A-803v30...
|...........|...........|...........|...........
|........F02|...........|...........|...........
|...........|...........|===01......|...........
|...........|...........|...........|...........
|...........|...........|...........|...........
|G-401v64...|B-501v36...|C-401v56...|C-303v44...
|...........|...........|...........|...........
|...........|...........|...........|...........
|...........|...........|===01......|...........
|...........|...........|...........|...........
|...........|...........|...........|...........
|...........|...........|C-401v56...|...........
|...........|...........|...........|...........
|...........|...........|...........|...........
|...........|...........|===01......|...........
|...........|...........|...........|...........
|...........|...........|...........|...........
|...........|A-501v36...|C-501v56...|A-803v44...
|...........|...........|...........|...........
|...........|...........|...........|...........
|...........|...........|===01......|...........
|........F01|...........|...........|...........
|...........|...........|...........|...........
|...........|...........|C-501v56...|A-803v30...
|...........|...........|...........|...........
|........E02|...........|...........|...........
|...........|...........|===01......|...........
|...........|...........|...........|...........
|...........|...........|...........|...........
|F#401v64...|G-501v36...|C-401v56...|A#403v44...
|...........|...........|...........|...........
|...........|...........|...........|...........
|...........|...........|===01......|...........
|...........|...........|...........|...........
|...........|...........|...........|...........
|...........|...........|C-401v56...|...........
|...........|...........|...........|...........
|...........|...........|...........|...........
|...........|...........|===01......|...........
|...........|...........|...........|...........
|...........|...........|...........|...........
|...........|A-501v54...|C-501v56...|A-803v44...
|...........|...........|...........|...........
|...........|...........|...........|...........
|...........|...........|===01......|...........
|........F01|...........|...........|...........
|...........|...........|...........|...........
|...........|...........|C-501v56...|A-803v30...
|...........|...........|...........|...........
|........E02|...........|...........|...........
|...........|...........|===01......|...........
|...........|...........|...........|...........
|...........|...........|...........|...........
|E-401v64...|B-501v54...|A-301v56...|C-303v44...
|...........|...........|...........|...........
|...........|...........|...........|...........
|...........|...........|===01......|...........
|...........|...........|...........|...........
|...........|...........|...........|...........
|...........|...........|A-301v38...|...........
|...........|...........|...........|...........
|...........|...........|...........|...........
|...........|...........|===01......|...........
|...........|...........|...........|...........
|...........|...........|...........|...........
|...........|.....v40...|A-401v56...|A-803v44...
|...........|...........|...........|...........
|...........|...........|...........|...........
|...........|...........|===01......|...........
|........F01|........F01|...........|...........
|...........|...........|...........|...........
|...........|...........|A-401v56...|A-803v30...
|...........|...........|...........|...........
|........E02|........E02|...........|...........
|...........|...........|===01......|...........
|...........|...........|...........|...........
|...........|...........|...........|...........
|D-401v64...|E-601v32...|A-301v56...|A#403v44...
|...........|...........|...........|...........
|...........|...........|...........|...........
|...........|...........|===01......|...........
|...........|...........|...........|...........
|...........|...........|...........|...........
|...........|...........|A-301v56...|...........
|...........|...........|...........|...........
|...........|...........|...........|...........
|...........|...........|===01......|...........
|...........|...........|...........|...........
|...........|...........|...........|...........
|E-401v64...|B-501v54...|A-401v56...|A-803v44...
|...........|...........|...........|...........
|...........|...........|...........|...........
|...........|...........|===01......|...........
|...........|...........|...........|...........
|...........|...........|...........|...........
|...........|...........|A-401v56...|A-803v30...
|...........|...........|...........|...........
|...........|...........|...........|...........
|...........|...........|===01......|...........
|...........|...........|...........|...........
|...........|...........|...........|...........
|...........|===01......|A-301v56...|C-303v44...
|...........|...........|...........|...........
|...........|...........|...........|...........
|...........|...........|===01......|...........
|........F01|...........|...........|...........
|...........|...........|...........|...........
|...........|...........|A-301v56...|...........
|...........|...........|...........|...........
|........E02|...........|...........|...........
|...........|...........|===01......|...........
|...........|...........|...........|...........
|...........|...........|...........|...........
|D-401v64...|A-501v54...|A-401v56...|A-803v44...
|...........|...........|...........|...........
|...........|...........|...........|...........
|...........|...........|===01......|...........
|...........|...........|...........|...........
|...........|...........|...........|...........
|...........|...........|A-401v56...|A-803v30...
|...........|...........|...........|...........
|...........|...........|...........|...........
|...........|...........|===01......|...........
|...........|...........|...........|...........
|...........|...........|...........|...........
|E-401v64...|B-501v54...|A-301v56...|A#403v44...
|...........|...........|...........|...........
|...........|...........|...........|...........
|...........|...........|===01......|...........
|...........|...........|...........|...........
|...........|...........|...........|...........
|...........|...........|A-301v56...|...........
|...........|...........|...........|...........
|...........|...........|...........|...........
|...........|...........|===01......|...........
|...........|...........|...........|...........
|...........|...........|...........|...........
|...........|.....v40...|A-401v56...|A-803v44...
|...........|...........|...........|...........
|...........|...........|...........|...........
|...........|...........|===01......|...........
|........F01|........F01|...........|...........
|...........|...........|...........|...........
|...........|...........|A-401v56...|A-803v30...
|...........|...........|...........|...........
|........E02|........E02|...........|...........
|...........|...........|===01......|...........
|...........|...........|...........|...........
|...........|...........|...........|...........
|........F02|.....v32F02|A-301v56...|C-303v44...
|...........|...........|...........|...........
|...........|...........|...........|...........
|...........|...........|===01......|...........
|........E02|........E02|...........|...........
|...........|...........|...........|...........
|...........|...........|A-301v38...|...........
|...........|...........|...........|...........
|........F02|........F02|...........|...........
|...........|...........|===01......|...........
|...........|...........|...........|...........
|...........|...........|...........|...........
|E-601v64...|B-401v64...|A-401v56...|A-803v44...
|...........|...........|...........|...........
|...........|...........|...........|...........
|...........|...........|===01......|...........
|...........|...........|...........|...........
|...........|...........|...........|...........
|===01......|===01......|A-401v38...|A-803v30...
|...........|...........|...........|...........
|...........|...........|...........|...........
|...........|...........|===01......|...........
|...........|...........|...........|...........
|...........|...........|...........|...........
|D-601v64...|A-401v64...|A-301v56...|A#403v44...
|...........|...........|...........|...........
|...........|...........|...........|...........
|...........|...........|===01......|...........
|...........|...........|...........|...........
|...........|...........|...........|...........
|E-601v64...|B-401v64...|A-301v56...|...........
|...........|...........|...........|...........
|...........|...........|...........|...........
|...........|...........|===01......|...........
|...........|...........|...........|...........
|...........|...........|...........|...........
|D-601v64...|A-401v64...|A-401v56...|A-803v44...
|...........|...........|...........|...........
|...........|...........|...........|...........
|...........|...........|===01......|...........
|...........|...........|...........|...........
|...........|...........|...........|...........
|===01......|===01......|A-401v38...|A-803v30...
|...........|...........|...........|...........
|...........|...........|...........|...........
|...........|...........|===01......|...........
|...........|...........|...........|...........
|...........|...........|...........|...........
|G-601v64...|D-501v64...|A-301v56...|C-303v44...
|...........|...........|...........|...........
|...........|...........|...........|...........
|...........|...........|===01......|...........
|...........|...........|...........|...........
|...........|...........|...........|...........
|===01......|===01......|A-301v56...|...........
|...........|...........|...........|...........
|...........|...........|...........|...........
|...........|...........|===01......|...........
|...........|...........|...........|...........
|...........|...........|...........|...........
|E-601v64...|B-401v64...|A-401v56...|A-803v44...
|...........|...........|...........|...........
|...........|...........|...........|...........
|...........|...........|===01......|...........
|...........|...........|...........|...........
|...........|...........|...........|...........
|===01......|===01......|A-401v38...|A-803v30...
|...........|...........|...........|...........
|...........|...........|...........|...........
|...........|...........|===01......|...........
|...........|...........|...........|...........
|...........|...........|...........|...........
|D-601v64...|A-401v64...|G-401v56...|A#403v44...
|...........|...........|...........|...........
|...........|...........|...........|...........
|...........|...........|===01......|...........
|...........|...........|...........|...........
|...........|...........|...........|...........
|B-501v64...|F#401v64...|G-401v56...|A#403v44...
|...........|...........|...........|...........
|...........|...........|...........|...........
|...........|...........|===01......|...........
|...........|...........|...........|...........
|...........|...........|...........|...........
|E-601v64...|B-401v64...|E-401v56...|A#403v44...
|...........|...........|...........|...........
|...........|...........|...........|...........
|...........|...........|===01......|...........
|...........|...........|...........|...........
|...........|...........|...........|...........
|===01......|===01......|E-401v56...|...........
|...........|...........|...........|...........
|...........|...........|...........|...........
|...........|...........|===01......|...........
|...........|...........|...........|...........
|...........|...........|...........|...........
|...........|...........|D-401v56...|C-303v44...
|...........|...........|...........|...........
|...........|...........|...........|...........
|...........|...........|...........|...........
|...........|...........|...........|...........
|...........|...........|...........|...........
|...........|...........|...........|...........
|...........|...........|...........|...........
|...........|...........|...........|...........
|...........|...........|...........|...........
|...........|...........|...........|...........
|...........|...........|...........|...........
|E-501v64...|C-501v42...|D-401v38...|A-803v30...
|...........|...........|...........|...........
|...........|...........|...........|...........
|...........|...........|...........|...........
|...........|...........|...........|...........
|...........|...........|...........|...........
|...........|...........|...........|...........
|...........|...........|...........|...........
|...........|...........|...........|...........
|...........|...........|...........|...........
|...........|...........|...........|...........
|...........|...........|...........|...........
|...........|.....v40...|D-501v56...|A#403v44...
|...........|...........|...........|...........
|...........|...........|...........|...........
|...........|...........|...........|...........
|........F01|........F01|...........|...........
|...........|...........|...........|...........
|...........|...........|...........|...........
|...........|...........|...........|...........
|........E02|........E02|...........|...........
|...........|...........|...........|...........
|...........|...........|...........|...........
|...........|...........|...........|...........
|........F02|.....v32F02|D-401v56...|A-803v30...
|...........|...........|...........|...........
|...........|...........|...........|...........
|...........|...........|...........|...........
|........E02|........E02|...........|...........
|...........|...........|...........|...........
|...........|...........|...........|...........
|...........|...........|...........|...........
|........F02|........F02|...........|...........
|...........|...........|...........|...........
|...........|...........|...........|...........
|...........|...........|...........|...........
|D-501v64...|A-401v42...|F-401v56...|C-303v44...
|...........|...........|...........|...........
|...........|...........|...........|...........
|...........|...........|...........|...........
|...........|...........|...........|...........
|...........|...........|...........|...........
|===01......|===01......|===01......|...........
|...........|...........|...........|...........
|...........|...........|...........|...........
|...........|...........|...........|...........
|...........|...........|...........|...........
|...........|...........|...........|...........
|...........|...........|...........|A-803v30...
|...........|...........|...........|...........
|...........|...........|...........|...........
|...........|...........|...........|...........
|...........|...........|...........|...........
|...........|...........|...........|...........
|...........|...........|...........|...........
|...........|...........|...........|...........
|...........|...........|...........|...........
|...........|...........|...........|...........
|...........|...........|...........|...........
|...........|...........|...........|...........
|D-501v64...|A-401v42...|A-401v56...|A#403v44...
|...........|...........|...........|...........
|...........|...........|...........|...........
|...........|...........|...........|...........
|...........|...........|...........|...........
|...........|...........|...........|...........
|===01......|===01......|...........|...........
|...........|...........|...........|...........
|...........|...........|...........|...........
|...........|...........|...........|...........
|...........|...........|...........|...........
|...........|...........|...........|...........
|...........|...........|B-401v56...|A-803v30...
|...........|...........|...........|...........
|...........|...........|...........|...........
|...........|...........|...........|...........
|...........|...........|...........|...........
|...........|...........|...........|...........
|...........|...........|...........|...........
|...........|...........|...........|...........
|...........|...........|...........|...........
|...........|...........|...........|...........
|...........|...........|...........|...........
|...........|...........|...........|...........
|E-501v64...|C-501v42...|C-501v56...|C-303v44...
|...........|...........|...........|...........
|...........|...........|...........|...........
|...........|...........|...........|...........
|...........|...........|...........|...........
|...........|...........|...........|...........
|===01......|===01......|===01......|...........
|...........|...........|...........|...........
|...........|...........|...........|...........
|...........|...........|...........|...........
|...........|...........|...........|...........
|...........|...........|...........|...........
|...........|...........|C-501v56...|A-803v30...
|...........|...........|...........|...........
|...........|...........|...........|...........
|...........|...........|...........|...........
|...........|...........|...........|...........
|...........|...........|...........|...........
|...........|...........|...........|...........
|...........|...........|...........|...........
|...........|...........|...........|...........
|...........|...........|...........|...........
|...........|...........|...........|...........
|...........|...........|...........|...........
|E-501v64...|C-501v42...|C-401v56...|A#403v44...
|...........|...........|...........|...........
|...........|...........|...........|...........
|...........|...........|...........|...........
|...........|...........|...........|...........
|...........|...........|...........|...........
|===01......|===01......|...........|...........
|...........|...........|...........|...........
|...........|...........|...........|...........
|...........|...........|...........|...........
|...........|...........|...........|...........
|...........|...........|...........|...........
|D-501v64...|B-401v42...|B-401v56...|C-303v44...
|...........|...........|...........|...........
|...........|...........|...........|...........
|...........|...........|...........|...........
|...........|...........|...........|...........
|...........|...........|...........|...........
|===01......|===01......|===01......|...........
|...........|...........|...........|...........
|...........|...........|...........|...........
|...........|...........|...........|...........
|...........|...........|...........|...........
|...........|...........|...........|...........
|...........|...........|...........|A-803v30...
|...........|...........|...........|...........
|...........|...........|...........|...........
|...........|...........|...........|...........
|...........|...........|...........|...........
|...........|...........|...........|...........
|...........|...........|...........|...........
|...........|...........|...........|...........
|...........|...........|...........|...........
|...........|...........|...........|...........
|...........|...........|...........|...........
|...........|...........|...........|...........
|D-501v64...|E-601v54...|B-401v56...|A#403v44...
|...........|...........|...........|...........
|...........|...........|...........|...........
|...........|...........|...........|...........
|...........|...........|...........|...........
|...........|...........|...........|...........
|===01......|===01......|...........|...........
|...........|...........|...........|...........
|...........|...........|...........|...........
|...........|...........|...........|...........
|...........|...........|...........|...........
|...........|...........|...........|...........
|...........|D-601v54...|B-301v56...|A-803v30...
|...........|...........|...........|...........
|...........|...........|...........|...........
|...........|...........|...........|...........
|...........|...........|...........|...........
|...........|...........|...........|...........
|...........|===01......|===01......|...........
|...........|...........|...........|...........
|...........|...........|...........|...........
|...........|...........|...........|...........
|...........|...........|...........|...........
|...........|...........|...........|...........
|...........|B-501v54...|B-301v56...|A-803v30...
|...........|...........|...........|...........
|...........|...........|...........|...........
|...........|...........|...........|...........
|...........|...........|...........|...........
|...........|...........|...........|...........
|...........|===01......|===01......|...........
|...........|...........|...........|...........
|...........|...........|...........|...........
|...........|...........|...........|...........
|...........|...........|...........|...........
|...........|...........|...........|...........
|...........|A-501v58...|D-401v56...|C-303v44...
|...........|...........|...........|...........
|...........|...........|...........|...........
|...........|...........|...........|...........
|...........|........F01|...........|...........
|...........|...........|...........|...........
|...........|...........|...........|...........
|...........|...........|...........|...........
|...........|........E02|...........|...........
|...........|...........|...........|...........
|...........|...........|...........|...........
|...........|...........|...........|...........
|E-501v64...|.....v52F02|D-401v38...|A-803v30...
|...........|.....v50...|...........|...........
|...........|.....v48...|...........|...........
|...........|.....v46...|...........|...........
|...........|.....v44E02|...........|...........
|...........|.....v40...|...........|...........
|...........|.....v38...|...........|...........
|...........|.....v36...|...........|...........
|...........|.....v34F02|...........|...........
|...........|.....v32...|...........|...........
|...........|.....v30...|...........|...........
|...........|.....v28...|...........|...........
|...........|.....v26E02|D-501v56...|A#403v44...
|...........|.....v24...|...........|...........
|...........|.....v22...|...........|...........
|...........|.....v20...|...........|...........
|........F01|.....v18F02|...........|...........
|...........|.....v16...|...........|...........
|...........|.....v14...|...........|...........
|...........|.....v12...|...........|...........
|........E02|.....v10E02|...........|...........
|...........|.....v08...|...........|...........
|...........|.....v06...|...........|...........
|...........|.....v04...|...........|...........
|........F02|.....v02...|D-401v56...|A-803v30...
|...........|===01......|...........|...........
|...........|...........|...........|...........
|...........|...........|...........|...........
|........E02|...........|...........|...........
|...........|...........|...........|...........
|...........|...........|...........|...........
|...........|...........|...........|...........
|........F02|...........|...........|...........
|...........|...........|...........|...........
|...........|...........|...........|...........
|...........|...........|...........|...........
|D-501v64...|A-401v42...|F-401v56...|C-303v44...
|...........|...........|...........|...........
|...........|...........|...........|...........
|...........|...........|...........|...........
|...........|...........|...........|...........
|...........|...........|...........|...........
|===01......|===01......|===01......|...........
|...........|...........|...........|...........
|...........|...........|...........|...........
|...........|...........|...........|...........
|...........|...........|...........|...........
|...........|...........|...........|...........
|...........|...........|...........|A-803v30...
|...........|...........|...........|...........
|...........|...........|...........|...........
|...........|...........|...........|...........
|...........|...........|...........|...........
|...........|...........|...........|...........
|...........|...........|...........|...........
|...........|...........|...........|...........
|...........|...........|...........|...........
|...........|...........|...........|...........
|...........|...........|...........|...........
|...........|...........|...........|...........
|D-501v42...|A-401v42...|A-401v56...|A#403v44...
|...........|...........|...........|...........
|...........|...........|...........|...........
|...........|...........|...........|...........
|...........|...........|...........|...........
|...........|...........|...........|...........
|===01......|===01......|...........|...........
|...........|...........|...........|...........
|...........|...........|...........|...........
|...........|...........|...........|...........
|...........|...........|...........|...........
|...........|...........|...........|...........
|...........|...........|B-401v56...|A-803v30...
|...........|...........|...........|...........
|...........|...........|...........|...........
|...........|...........|...........|...........
|...........|...........|...........|...........
|...........|...........|...........|...........
|...........|...........|...........|...........
|...........|...........|...........|...........
|...........|...........|...........|...........
|...........|...........|...........|...........
|...........|...........|...........|...........
|...........|...........|...........|...........
|E-501v42...|C-501v42...|C-501v56...|C-303v44...
|...........|...........|...........|...........
|...........|...........|...........|...........
|...........|...........|...........|...........
|...........|...........|...........|...........
|...........|...........|...........|...........
|===01......|===01......|===01......|...........
|...........|...........|...........|...........
|...........|...........|...........|...........
|...........|...........|...........|...........
|...........|...........|...........|...........
|...........|...........|...........|...........
|...........|...........|C-501v56...|A-803v30...
|...........|...........|...........|...........
|...........|...........|...........|...........
|...........|...........|...........|...........
|...........|...........|...........|...........
|...........|...........|...........|...........
|...........|...........|...........|...........
|...........|...........|...........|...........
|...........|...........|...........|...........
|...........|...........|...........|...........
|...........|...........|...........|...........
|...........|...........|...........|...........
|E-501v42...|C-501v42...|C-401v56...|A#403v44...
|...........|...........|...........|...........
|...........|...........|...........|...........
|...........|...........|...........|...........
|...........|...........|...........|...........
|...........|...........|...........|...........
|===01......|===01......|...........|...........
|...........|...........|...........|...........
|...........|...........|...........|...........
|...........|...........|...........|...........
|...........|...........|...........|...........
|...........|...........|...........|...........
|D-501v42...|B-401v42...|B-401v56...|C-303v44...
|...........|...........|...........|...........
|...........|...........|...........|...........
|...........|...........|...........|...........
|...........|...........|...........|...........
|...........|...........|...........|...........
|===01......|===01......|===01......|...........
|...........|...........|...........|...........
|...........|...........|...........|...........
|...........|...........|...........|...........
|...........|...........|...........|...........
|...........|...........|...........|...........
|...........|...........|...........|A-803v30...
|...........|...........|...........|...........
|...........|...........|...........|...........
|...........|...........|...........|...........
|...........|...........|...........|...........
|...........|...........|...........|...........
|...........|...........|...........|...........
|...........|...........|...........|...........
|...........|...........|...........|...........
|...........|...........|...........|...........
|...........|...........|...........|...........
|...........|...........|...........|...........
|D-501v42...|B-401v42...|B-401v56...|A#403v44...
|...........|...........|...........|...........
|...........|...........|...........|...........
|...........|...........|...........|...........
|...........|...........|...........|...........
|...........|...........|...........|...........
|===01......|===01......|...........|...........
|...........|...........|...........|...........
|...........|...........|...........|...........
|...........|...........|...........|...........
|...........|...........|...........|...........
|...........|...........|...........|...........
|...........|...........|B-301v56...|A-803v30...
|...........|...........|...........|...........
|...........|...........|...........|...........
|...........|...........|...........|...........
|...........|...........|...........|...........
|...........|...........|...........|...........
|...........|...........|===01......|...........
|...........|...........|...........|...........
|...........|...........|...........|...........
|...........|...........|...........|...........
|...........|...........|...........|...........
|...........|...........|...........|...........
|...........|...........|B-301v56...|A-803v30...
|...........|...........|...........|...........
|...........|...........|...........|...........
|...........|...........|...........|...........
|...........|...........|...........|...........
|...........|...........|...........|...........
|...........|...........|===01......|...........
|...........|...........|...........|...........
|...........|...........|...........|...........
|...........|...........|...........|...........
|...........|...........|...........|...........
|...........|...........|...........|...........
|...........|...........|E-401v56...|C-303v44...
|...........|...........|...........|...........
|...........|...........|...........|...........
|...........|...........|...........|...........
|...........|...........|...........|...........
|...........|...........|...........|...........
|...........|...........|...........|...........
|...........|...........|...........|...........
|...........|...........|...........|...........
|...........|...........|...........|...........
|...........|...........|...........|...........
|...........|...........|...........|...........
|F#501v42...|D-501v42...|E-401v38...|A-803v30...
|...........|...........|...........|...........
|...........|...........|...........|...........
|...........|...........|...........|...........
|...........|...........|...........|...........
|...........|...........|...........|...........
|...........|...........|...........|...........
|...........|...........|...........|...........
|...........|...........|...........|...........
|...........|...........|...........|...........
|...........|...........|...........|...........
|...........|...........|...........|...........
|...........|...........|E-501v56...|A#403v44...
|...........|...........|...........|...........
|...........|...........|...........|...........
|...........|...........|...........|...........
|........F01|........F01|...........|...........
|...........|...........|...........|...........
|...........|...........|...........|...........
|...........|...........|...........|...........
|........E02|........E02|...........|...........
|...........|...........|...........|...........
|...........|...........|...........|...........
|...........|...........|...........|...........
|........F02|........F02|E-401v56...|A-803v30...
|...........|...........|...........|...........
|...........|...........|...........|...........
|...........|...........|...........|...........
|........E02|........E02|...........|...........
|...........|...........|...........|...........
|...........|...........|...........|...........
|...........|...........|...........|...........
|........F02|........F02|...........|...........
|...........|...........|...........|...........
|...........|...........|...........|...........
|...........|...........|...........|...........
|E-501v42...|C#501v42...|G-401v56...|C-303v44...
|...........|...........|...........|...........
|...........|...........|...........|...........
|...........|...........|...........|...........
|...........|...........|...........|...........
|...........|...........|...........|...........
|===01......|===01......|===01......|...........
|...........|...........|...........|...........
|...........|...........|...........|...........
|...........|...........|...........|...........
|...........|...........|...........|...........
|...........|...........|...........|...........
|...........|...........|...........|A-803v30...
|...........|...........|...........|...........
|...........|...........|...........|...........
|...........|...........|...........|...........
|...........|...........|...........|...........
|...........|...........|...........|...........
|...........|...........|...........|...........
|...........|...........|...........|...........
|...........|...........|...........|...........
|...........|...........|...........|...........
|...........|...........|...........|...........
|...........|...........|...........|...........
|E-501v42...|C#501v42...|B-401v56...|A#403v44...
|...........|...........|...........|...........
|...........|...........|...........|...........
|...........|...........|...........|...........
|...........|...........|...........|...........
|...........|...........|...........|...........
|===01......|===01......|...........|...........
|...........|...........|...........|...........
|...........|...........|...........|...........
|...........|...........|...........|...........
|...........|...........|...........|...........
|...........|...........|...........|...........
|...........|...........|C#501v56...|A-803v30...
|...........|...........|...........|...........
|...........|...........|...........|...........
|...........|...........|...........|...........
|...........|...........|...........|...........
|...........|...........|...........|...........
|...........|...........|...........|...........
|...........|...........|...........|...........
|...........|...........|...........|...........
|...........|...........|...........|...........
|...........|...........|...........|...........
|...........|...........|...........|...........
|F#501v42...|D-501v42...|D-501v56...|C-303v44...
|...........|...........|...........|...........
|...........|...........|...........|...........
|...........|...........|...........|...........
|...........|...........|...........|...........
|...........|...........|...........|...........
|===01......|===01......|...........|...........
|...........|...........|...........|...........
|...........|...........|...........|...........
|...........|...........|...........|...........
|...........|...........|...........|...........
|...........|...........|...........|...........
|...........|...........|D-501v56...|A-803v30...
|...........|...........|...........|...........
|...........|...........|...........|...........
|...........|...........|...........|...........
|...........|...........|...........|...........
|...........|...........|...........|...........
|...........|...........|...........|...........
|...........|...........|...........|...........
|...........|...........|...........|...........
|...........|...........|...........|...........
|...........|...........|...........|...........
|...........|...........|...........|...........
|F#501v42...|D-501v42...|D-401v56...|A#403v44...
|...........|...........|...........|...........
|...........|...........|...........|...........
|...........|...........|...........|...........
|...........|...........|...........|...........
|...........|...........|...........|...........
|===01......|===01......|...........|...........
|...........|...........|...........|...........
|...........|...........|...........|...........
|...........|...........|...........|...........
|...........|...........|...........|...........
|...........|...........|...........|...........
|E-501v42...|C#501v42...|C#501v38...|C-303v44...
|...........|...........|...........|...........
|...........|...........|...........|...........
|...........|...........|...........|...........
|...........|...........|...........|...........
|...........|...........|...........|...........
|===01......|===01......|===01......|...........
|...........|...........|...........|...........
|...........|...........|...........|...........
|...........|...........|...........|...........
|...........|...........|...........|...........
|...........|...........|...........|...........
|...........|...........|...........|A-803v30...
|...........|...........|...........|...........
|...........|...........|...........|...........
|...........|...........|...........|...........
|...........|...........|...........|...........
|...........|...........|...........|...........
|...........|...........|...........|...........
|...........|...........|...........|...........
|...........|...........|...........|...........
|...........|...........|...........|...........
|...........|...........|...........|...........
|...........|...........|...........|...........
|E-501v42...|F#601v62...|C#501v38...|A#403v44...
|...........|...........|...........|...........
|...........|...........|...........|...........
|...........|...........|...........|...........
|...........|...........|...........|...........
|...........|...........|...........|...........
|===01......|===01......|...........|...........
|...........|...........|...........|...........
|...........|...........|...........|...........
|...........|...........|...........|...........
|...........|...........|...........|...........
|...........|...........|...........|...........
|...........|E-601v42...|C#401v56...|A-803v30...
|...........|...........|...........|...........
|...........|...........|...........|...........
|...........|...........|...........|...........
|...........|...........|...........|...........
|...........|...........|...........|...........
|...........|===01......|===01......|...........
|...........|...........|...........|...........
|...........|...........|...........|...........
|...........|...........|...........|...........
|...........|...........|...........|...........
|...........|...........|...........|...........
|...........|C#601v62...|C#401v38...|A-803v30...
|...........|...........|...........|...........
|...........|...........|...........|...........
|...........|...........|...........|...........
|...........|...........|...........|...........
|...........|...........|...........|...........
|...........|===01......|===01......|...........
|...........|...........|...........|...........
|...........|...........|...........|...........
|...........|...........|...........|...........
|...........|...........|...........|...........
|...........|...........|...........|...........
|...........|B-501v58...|E-401v56...|C-303v44...
|...........|...........|...........|...........
|...........|...........|...........|...........
|...........|...........|...........|...........
|...........|...........|...........|...........
|...........|...........|...........|...........
|...........|...........|...........|...........
|...........|...........|...........|...........
|...........|...........|...........|...........
|...........|...........|...........|...........
|...........|...........|...........|...........
|...........|...........|...........|...........
|F#501v42...|.....v52F01|E-401v38...|A-803v30...
|...........|.....v50...|...........|...........
|...........|.....v48...|...........|...........
|...........|.....v46...|...........|...........
|...........|.....v44E02|...........|...........
|...........|.....v40...|...........|...........
|...........|.....v38...|...........|...........
|...........|.....v36...|...........|...........
|...........|.....v34F02|...........|...........
|...........|.....v32...|...........|...........
|...........|.....v30...|...........|...........
|...........|.....v28...|...........|...........
|...........|.....v26E02|E-501v56...|A#403v44...
|...........|.....v24...|...........|...........
|...........|.....v22...|...........|...........
|...........|.....v20...|...........|...........
|........F01|.....v18F02|...........|...........
|...........|.....v16...|...........|...........
|...........|.....v14...|...........|...........
|...........|.....v12...|...........|...........
|........E02|.....v10E02|...........|...........
|...........|.....v08...|...........|...........
|...........|.....v06...|...........|...........
|...........|.....v04...|...........|...........
|........F02|.....v02F02|E-401v56...|A-803v30...
|...........|===01......|...........|...........
|...........|...........|...........|...........
|...........|...........|...........|...........
|........E02|...........|...........|...........
|...........|...........|...........|...........
|...........|...........|...........|...........
|...........|...........|...........|...........
|........F02|...........|...........|...........
|...........|...........|...........|...........
|...........|...........|...........|...........
|...........|...........|...........|...........
|E-501v42...|C#501v42...|G-401v56...|C-303v44...
|...........|...........|...........|...........
|...........|...........|...........|...........
|...........|...........|...........|...........
|...........|...........|...........|...........
|...........|...........|...........|...........
|===01......|===01......|===01......|...........
|...........|...........|...........|...........
|...........|...........|...........|...........
|...........|...........|...........|...........
|...........|...........|...........|...........
|...........|...........|...........|...........
|...........|...........|...........|A-803v30...
|...........|...........|...........|...........
|...........|...........|...........|...........
|...........|...........|...........|...........
|...........|...........|...........|...........
|...........|...........|...........|...........
|...........|...........|...........|...........
|...........|...........|...........|...........
|...........|...........|...........|...........
|...........|...........|...........|...........
|...........|...........|...........|...........
|...........|...........|...........|...........
|E-501v42...|C#501v42...|B-401v56...|A#403v44...
|...........|...........|...........|...........
|...........|...........|...........|...........
|...........|...........|...........|...........
|...........|...........|...........|...........
|...........|...........|...........|...........
|===01......|===01......|...........|...........
|...........|...........|...........|...........
|...........|...........|...........|...........
|...........|...........|...........|...........
|...........|...........|...........|...........
|...........|...........|...........|...........
|...........|...........|C#501v56...|A-803v30...
|...........|...........|...........|...........
|...........|...........|...........|...........
|...........|...........|...........|...........
|...........|...........|...........|...........
|...........|...........|...........|...........
|...........|...........|...........|...........
|...........|...........|...........|...........
|...........|...........|...........|...........
|...........|...........|...........|...........
|...........|...........|...........|...........
|...........|...........|...........|...........
|F#501v42...|D-501v42...|D-501v56...|C-303v44...
|...........|...........|...........|...........
|...........|...........|...........|...........
|...........|...........|...........|...........
|...........|...........|...........|...........
|...........|...........|...........|...........
|===01......|===01......|...........|...........
|...........|...........|...........|...........
|...........|...........|...........|...........
|...........|...........|...........|...........
|...........|...........|...........|...........
|...........|...........|...........|...........
|...........|...........|D-501v56...|A-803v30...
|...........|...........|...........|...........
|...........|...........|...........|...........
|...........|...........|...........|...........
|...........|...........|...........|...........
|...........|...........|...........|...........
|...........|...........|...........|...........
|...........|...........|...........|...........
|...........|...........|...........|...........
|...........|...........|...........|...........
|...........|...........|...........|...........
|...........|...........|...........|...........
|F#501v42...|D-501v42...|D-401v56...|A#403v44...
|...........|...........|...........|...........
|...........|...........|...........|...........
|...........|...........|...........|...........
|...........|...........|...........|...........
|...........|...........|...........|...........
|===01......|===01......|...........|...........
|...........|...........|...........|...........
|...........|...........|...........|...........
|...........|...........|...........|...........
|...........|...........|...........|...........
|...........|...........|...........|...........
|E-501v42...|C#501v42...|C#501v56...|C-303v44...
|...........|...........|...........|...........
|...........|...........|...........|...........
|...........|...........|...........|...........
|...........|...........|...........|...........
|...........|...........|...........|...........
|===01......|===01......|===01......|...........
|...........|...........|...........|...........
|...........|...........|...........|...........
|...........|...........|...........|...........
|...........|...........|...........|...........
|...........|...........|...........|...........
|...........|...........|...........|A-803v30...
|...........|...........|...........|...........
|...........|...........|...........|...........
|...........|...........|...........|...........
|...........|...........|...........|...........
|...........|...........|...........|...........
|...........|...........|...........|...........
|...........|...........|...........|...........
|...........|...........|...........|...........
|...........|...........|...........|...........
|...........|...........|...........|...........
|...........|...........|...........|...........
|E-501v42...|C#501v42...|B-401v56...|C-303v44...
|...........|...........|...........|...........
|...........|...........|...........|...........
|...........|...........|...........|...........
|...........|...........|...........|...........
|...........|...........|...........|...........
|===01......|===01......|...........|...........
|...........|...........|...........|...........
|...........|...........|...........|...........
|...........|...........|...........|...........
|...........|...........|...........|...........
|...........|...........|...........|...........
|...........|...........|G-401v56...|A#403v44...
|...........|...........|...........|...........
|...........|...........|...........|...........
|...........|...........|...........|...........
|...........|...........|...........|...........
|...........|...........|...........|...........
|...........|...........|...........|...........
|...........|...........|...........|...........
|...........|...........|...........|...........
|...........|...........|...........|...........
|...........|...........|...........|...........
|...........|...........|...........|...........
|...........|...........|E-401v56...|C-303v44...
|...........|...........|...........|...........
|...........|...........|...........|...........
|...........|...........|...........|...........
|...........|...........|...........|...........
|...........|...........|...........|...........
|...........|...........|...........|...........
|...........|...........|...........|...........
|...........|...........|...........|...........
|...........|...........|...........|...........
|...........|...........|...........|...........
|...........|...........|...........|...........
|...........|...........|===01......|===........
|...........|...........|...........|...........
|...........|...........|...........|...........
|...........|...........|...........|...........
|...........|...........|...........|...........
|...........|...........|...........|...........
|...........|...........|...........|...........
|...........|...........|...........|...........
|...........|...........|...........|...........
|...........|...........|...........|...........
|...........|...........|...........|...........
|...........|...........|...........|...........
|E-501v42...|C-501v42...|D-501v38...|C-303v44...
|...........|...........|...........|...........
|...........|...........|...........|...........
|...........|...........|...........|...........
|...........|...........|...........|...........
|...........|...........|...........|...........
|...........|...........|===01......|...........
|...........|...........|...........|...........
|...........|...........|...........|...........
|...........|...........|...........|...........
|...........|...........|...........|...........
|...........|...........|...........|...........
|...........|...........|D-601v56...|A#403v44...
|...........|...........|...........|...........
|...........|...........|...........|...........
|...........|...........|...........|...........
|........F01|........F01|...........|...........
|...........|...........|...........|...........
|...........|...........|...........|...........
|...........|...........|...........|...........
|........E02|........E02|...........|...........
|...........|...........|...........|...........
|...........|...........|...........|...........
|...........|...........|...........|...........
|........F02|........F02|D-501v56...|A-803v30...
|...........|...........|...........|...........
|...........|...........|...........|...........
|...........|...........|...........|...........
|........E02|........E02|...........|...........
|...........|...........|...........|...........
|...........|...........|...........|...........
|...........|...........|...........|...........
|........F02|........F02|...........|...........
|...........|...........|...........|...........
|...........|...........|...........|...........
|...........|...........|...........|...........
|D-501v42...|A-401v42...|F-501v56...|C-303v44...
|...........|...........|...........|...........
|...........|...........|...........|...........
|...........|...........|...........|...........
|...........|...........|...........|...........
|...........|...........|...........|...........
|===01......|===01......|===01......|...........
|...........|...........|...........|...........
|...........|...........|...........|...........
|...........|...........|...........|...........
|...........|...........|...........|...........
|...........|...........|...........|...........
|...........|...........|...........|A-803v30...
|...........|...........|...........|...........
|...........|...........|...........|...........
|...........|...........|...........|...........
|...........|...........|...........|...........
|...........|...........|...........|...........
|...........|...........|...........|...........
|...........|...........|...........|...........
|...........|...........|...........|...........
|...........|...........|...........|...........
|...........|...........|...........|...........
|...........|...........|...........|...........
|D-501v42...|A-401v42...|A-501v56...|A#403v44...
|...........|...........|...........|...........
|...........|...........|...........|...........
|...........|...........|...........|...........
|...........|...........|...........|...........
|...........|...........|...........|...........
|===01......|===01......|...........|...........
|...........|...........|...........|...........
|...........|...........|...........|...........
|...........|...........|...........|...........
|...........|...........|...........|...........
|...........|...........|...........|...........
|...........|...........|B-501v56...|A-803v30...
|...........|...........|...........|...........
|...........|...........|...........|...........
|...........|...........|...........|...........
|...........|...........|...........|...........
|...........|...........|...........|...........
|...........|...........|...........|...........
|...........|...........|...........|...........
|...........|...........|...........|...........
|...........|...........|...........|...........
|...........|...........|...........|...........
|...........|...........|...........|...........
|E-501v42...|C-501v42...|C-601v56...|C-303v44...
|...........|...........|...........|...........
|...........|...........|...........|...........
|...........|...........|...........|...........
|...........|...........|...........|...........
|...........|...........|...........|...........
|===01......|===01......|===01......|...........
|...........|...........|...........|...........
|...........|...........|...........|...........
|...........|...........|...........|...........
|...........|...........|...........|...........
|...........|...........|...........|...........
|...........|...........|C-601v56...|A-803v30...
|...........|...........|...........|...........
|...........|...........|...........|...........
|...........|...........|...........|...........
|...........|...........|...........|...........
|...........|...........|...........|...........
|...........|...........|...........|...........
|...........|...........|...........|...........
|...........|...........|...........|...........
|...........|...........|...........|...........
|...........|...........|...........|...........
|...........|...........|...........|...........
|E-501v42...|C-501v42...|C-501v56...|A#403v44...
|...........|...........|...........|...........
|...........|...........|...........|...........
|...........|...........|...........|...........
|...........|...........|...........|...........
|...........|...........|...........|...........
|===01......|===01......|...........|...........
|...........|...........|...........|...........
|...........|...........|...........|...........
|...........|...........|...........|...........
|...........|...........|...........|...........
|...........|...........|...........|...........
|D-501v42...|B-401v42...|B-501v38...|C-303v44...
|...........|...........|...........|...........
|...........|...........|...........|...........
|...........|...........|...........|...........
|...........|...........|...........|...........
|...........|...........|...........|...........
|===01......|===01......|===01......|...........
|...........|...........|...........|...........
|...........|...........|...........|...........
|...........|...........|...........|...........
|...........|...........|...........|...........
|...........|...........|...........|...........
|...........|...........|...........|A-803v30...
|...........|...........|...........|...........
|...........|...........|...........|...........
|...........|...........|...........|...........
|...........|...........|...........|...........
|...........|...........|...........|...........
|...........|...........|...........|...........
|...........|...........|...........|...........
|...........|...........|...........|...........
|...........|...........|...........|...........
|...........|...........|...........|...........
|...........|...........|...........|...........
|D-501v42...|B-401v42...|B-501v56...|A#403v44...
|...........|...........|...........|...........
|...........|...........|...........|...........
|...........|...........|...........|...........
|...........|...........|...........|...........
|...........|...........|...........|...........
|===01......|===01......|...........|...........
|...........|...........|...........|...........
|...........|...........|...........|...........
|...........|...........|...........|...........
|...........|...........|...........|...........
|...........|...........|...........|...........
|...........|...........|B-401v56...|A-803v30...
|...........|...........|...........|...........
|...........|...........|...........|...........
|...........|...........|...........|...........
|...........|...........|...........|...........
|...........|...........|...........|...........
|...........|...........|...........|...........
|...........|...........|...........|...........
|...........|...........|...........|...........
|...........|...........|...........|...........
|...........|...........|...........|...........
|...........|...........|...........|...........
|...........|...........|B-401v56...|A-803v30...
|...........|...........|...........|...........
|...........|...........|...........|...........
|...........|...........|...........|...........
|...........|...........|...........|...........
|...........|...........|...........|...........
|...........|...........|...........|...........
|...........|...........|...........|...........
|...........|...........|...........|...........
|...........|...........|...........|...........
|...........|...........|...........|...........
|...........|...........|...........|...........
|...........|...........|D-501v56...|C-303v44...
|...........|...........|...........|...........
|...........|...........|...........|...........
|...........|...........|...........|...........
|...........|...........|...........|...........
|...........|...........|...........|...........
|...........|...........|...........|...........
|...........|...........|...........|...........
|...........|...........|...........|...........
|...........|...........|...........|...........
|...........|...........|...........|...........
|...........|...........|...........|...........
|E-501v42...|C-501v42...|D-501v38...|A-803v30...
|...........|...........|...........|...........
|...........|...........|...........|...........
|...........|...........|...........|...........
|...........|...........|...........|...........
|...........|...........|...........|...........
|...........|...........|...........|...........
|...........|...........|...........|...........
|...........|...........|...........|...........
|...........|...........|...........|...........
|...........|...........|...........|...........
|...........|...........|...........|...........
|...........|...........|D-601v56...|A#403v44...
|...........|...........|...........|...........
|...........|...........|...........|...........
|...........|...........|...........|...........
|........F01|........F01|...........|...........
|...........|...........|...........|...........
|...........|...........|...........|...........
|...........|...........|...........|...........
|........E02|........E02|...........|...........
|...........|...........|...........|...........
|...........|...........|...........|...........
|...........|...........|...........|...........
|........F02|........F02|D-501v56...|A-803v30...
|...........|...........|...........|...........
|...........|...........|...........|...........
|...........|...........|...........|...........
|........E02|........E02|...........|...........
|...........|...........|...........|...........
|...........|...........|...........|...........
|...........|...........|...........|...........
|........F02|........F02|...........|...........
|...........|...........|...........|...........
|...........|...........|...........|...........
|...........|...........|...........|...........
|D-501v42...|A-401v42...|F-501v56...|C-303v44...
|...........|...........|...........|...........
|...........|...........|...........|...........
|...........|...........|...........|...........
|...........|...........|...........|...........
|...........|...........|...........|...........
|===01......|===01......|===01......|...........
|...........|...........|...........|...........
|...........|...........|...........|...........
|...........|...........|...........|...........
|...........|...........|...........|...........
|...........|...........|...........|...........
|...........|...........|...........|A-803v30...
|...........|...........|...........|...........
|...........|...........|...........|...........
|...........|...........|...........|...........
|...........|...........|...........|...........
|...........|...........|...........|...........
|...........|...........|...........|...........
|...........|...........|...........|...........
|...........|...........|...........|...........
|...........|...........|...........|...........
|...........|...........|...........|...........
|...........|...........|...........|...........
|D-501v42...|A-401v42...|A-501v56...|A#403v44...
|...........|...........|...........|...........
|...........|...........|...........|...........
|...........|...........|...........|...........
|...........|...........|...........|...........
|...........|...........|...........|...........
|===01......|===01......|...........|...........
|...........|...........|...........|...........
|...........|...........|...........|...........
|...........|...........|...........|...........
|...........|...........|...........|...........
|...........|...........|...........|...........
|...........|...........|B-501v56...|A-803v30...
|...........|...........|...........|...........
|...........|...........|...........|...........
|...........|...........|...........|...........
|...........|...........|...........|...........
|...........|...........|...........|...........
|...........|...........|...........|...........
|...........|...........|...........|...........
|...........|...........|...........|...........
|...........|...........|...........|...........
|...........|...........|...........|...........
|...........|...........|...........|...........
|E-501v42...|C-501v42...|C-601v56...|C-303v44...
|...........|...........|...........|...........
|...........|...........|...........|...........
|...........|...........|...........|...........
|...........|...........|...........|...........
|...........|...........|...........|...........
|===01......|===01......|===01......|...........
|...........|...........|...........|...........
|...........|...........|...........|...........
|...........|...........|...........|...........
|...........|...........|...........|...........
|...........|...........|...........|...........
|...........|...........|C-601v56...|A-803v30...
|...........|...........|...........|...........
|...........|...........|...........|...........
|...........|...........|...........|...........
|...........|...........|...........|...........
|...........|...........|...........|...........
|...........|...........|...........|...........
|...........|...........|...........|...........
|...........|...........|...........|...........
|...........|...........|...........|...........
|...........|...........|...........|...........
|...........|...........|...........|...........
|E-501v42...|C-501v42...|C-501v56...|A#403v44...
|...........|...........|...........|...........
|...........|...........|...........|...........
|...........|...........|...........|...........
|...........|...........|...........|...........
|...........|...........|...........|...........
|===01......|===01......|...........|...........
|...........|...........|...........|...........
|...........|...........|...........|...........
|...........|...........|...........|...........
|...........|...........|...........|...........
|...........|...........|...........|...........
|D-501v42...|B-401v42...|B-501v38...|C-303v44...
|...........|...........|...........|...........
|...........|...........|...........|...........
|...........|...........|...........|...........
|...........|...........|...........|...........
|...........|...........|...........|...........
|===01......|===01......|===01......|...........
|...........|...........|...........|...........
|...........|...........|...........|...........
|...........|...........|...........|...........
|...........|...........|...........|...........
|...........|...........|...........|...........
|...........|...........|...........|A-803v30...
|...........|...........|...........|...........
|...........|...........|...........|...........
|...........|...........|...........|...........
|...........|...........|...........|...........
|...........|...........|...........|...........
|...........|...........|...........|...........
|...........|...........|...........|...........
|...........|...........|...........|...........
|...........|...........|...........|...........
|...........|...........|...........|...........
|...........|...........|...........|...........
|D-501v42...|B-401v42...|B-501v56...|A#403v44...
|...........|...........|...........|...........
|...........|...........|...........|...........
|...........|...........|...........|...........
|...........|...........|...........|...........
|...........|...........|...........|...........
|===01......|===01......|...........|...........
|...........|...........|...........|...........
|...........|...........|...........|...........
|...........|...........|...........|...........
|...........|...........|...........|...........
|...........|...........|...........|...........
|...........|...........|B-401v56...|A-803v30...
|...........|...........|...........|...........
|...........|...........|...........|...........
|...........|...........|...........|...........
|...........|...........|...........|...........
|...........|...........|...........|...........
|...........|...........|...........|...........
|...........|...........|...........|...........
|...........|...........|...........|...........
|...........|...........|...........|...........
|...........|...........|...........|...........
|...........|...........|...........|...........
|...........|...........|B-401v56...|A-803v30...
|...........|...........|...........|...........
|...........|...........|...........|...........
|...........|...........|...........|...........
|...........|...........|...........|...........
|...........|...........|...........|...........
|...........|...........|...........|...........
|...........|...........|...........|...........
|...........|...........|...........|...........
|...........|...........|...........|...........
|...........|...........|...........|...........
|...........|...........|...........|...........
|...........|...........|E-501v56...|C-303v44...
|...........|...........|...........|...........
|...........|...........|...........|...........
|...........|...........|...........|...........
|...........|...........|...........|...........
|...........|...........|...........|...........
|...........|...........|...........|...........
|...........|...........|...........|...........
|...........|...........|...........|...........
|...........|...........|...........|...........
|...........|...........|...........|...........
|...........|...........|...........|...........
|F#501v42...|D-501v42...|E-501v38...|A-803v30...
|...........|...........|...........|...........
|...........|...........|...........|...........
|...........|...........|...........|...........
|...........|...........|...........|...........
|...........|...........|...........|...........
|...........|...........|...........|...........
|...........|...........|...........|...........
|...........|...........|...........|...........
|...........|...........|...........|...........
|...........|...........|...........|...........
|...........|...........|...........|...........
|...........|...........|E-601v56...|A#403v44...
|...........|...........|...........|...........
|...........|...........|...........|...........
|...........|...........|...........|...........
|........F01|........F01|...........|...........
|...........|...........|...........|...........
|...........|...........|...........|...........
|...........|...........|...........|...........
|........E02|........E02|...........|...........
|...........|...........|...........|...........
|...........|...........|...........|...........
|...........|...........|...........|...........
|........F02|........F02|E-501v56...|A-803v30...
|...........|...........|...........|...........
|...........|...........|...........|...........
|...........|...........|...........|...........
|........E02|........E02|...........|...........
|...........|...........|...........|...........
|...........|...........|...........|...........
|...........|...........|...........|...........
|........F02|........F02|...........|...........
|...........|...........|...........|...........
|...........|...........|...........|...........
|...........|...........|...........|...........
|E-501v42...|C#501v42...|G-501v56...|C-303v44...
|...........|...........|...........|...........
|...........|...........|...........|...........
|...........|...........|...........|...........
|...........|...........|...........|...........
|...........|...........|...........|...........
|===01......|===01......|===01......|...........
|...........|...........|...........|...........
|...........|...........|...........|...........
|...........|...........|...........|...........
|...........|...........|...........|...........
|...........|...........|...........|...........
|...........|...........|...........|A-803v30...
|...........|...........|...........|...........
|...........|...........|...........|...........
|...........|...........|...........|...........
|...........|...........|...........|...........
|...........|...........|...........|...........
|...........|...........|...........|...........
|...........|...........|...........|...........
|...........|...........|...........|...........
|...........|...........|...........|...........
|...........|...........|...........|...........
|...........|...........|...........|...........
|E-501v42...|C#501v42...|B-501v56...|A#403v44...
|...........|...........|...........|...........
|...........|...........|...........|...........
|...........|...........|...........|...........
|...........|...........|...........|...........
|...........|...........|...........|...........
|===01......|===01......|...........|...........
|...........|...........|...........|...........
|...........|...........|...........|...........
|...........|...........|...........|...........
|...........|...........|...........|...........
|...........|...........|...........|...........
|...........|...........|C#601v56...|A-803v30...
|...........|...........|...........|...........
|...........|...........|...........|...........
|...........|...........|...........|...........
|...........|...........|...........|...........
|...........|...........|...........|...........
|...........|...........|...........|...........
|...........|...........|...........|...........
|...........|...........|...........|...........
|...........|...........|...........|...........
|...........|...........|...........|...........
|...........|...........|...........|...........
|F#501v42...|D-501v42...|D-601v56...|C-303v44...
|...........|...........|...........|...........
|...........|...........|...........|...........
|...........|...........|...........|...........
|...........|...........|...........|...........
|...........|...........|...........|...........
|===01......|===01......|...........|...........
|...........|...........|...........|...........
|...........|...........|...........|...........
|...........|...........|...........|...........
|...........|...........|...........|...........
|...........|...........|...........|...........
|...........|...........|D-601v56...|A-803v30...
|...........|...........|...........|...........
|...........|...........|...........|...........
|...........|...........|...........|...........
|...........|...........|...........|...........
|...........|...........|...........|...........
|...........|...........|...........|...........
|...........|...........|...........|...........
|...........|...........|...........|...........
|...........|...........|...........|...........
|...........|...........|...........|...........
|...........|...........|...........|...........
|F#501v42...|D-501v42...|D-501v56...|A#403v44...
|...........|...........|...........|...........
|...........|...........|...........|...........
|...........|...........|...........|...........
|...........|...........|...........|...........
|...........|...........|...........|...........
|===01......|===01......|...........|...........
|...........|...........|...........|...........
|...........|...........|...........|...........
|...........|...........|...........|...........
|...........|...........|...........|...........
|...........|...........|...........|...........
|E-501v42...|C#501v42...|C#601v38...|C-303v44...
|...........|...........|...........|...........
|...........|...........|...........|...........
|...........|...........|...........|...........
|...........|...........|...........|...........
|...........|...........|...........|...........
|===01......|===01......|===01......|...........
|...........|...........|...........|...........
|...........|...........|...........|...........
|...........|...........|...........|...........
|...........|...........|...........|...........
|...........|...........|...........|...........
|...........|...........|...........|A-803v30...
|...........|...........|...........|...........
|...........|...........|...........|...........
|...........|...........|...........|...........
|...........|...........|...........|...........
|...........|...........|...........|...........
|...........|...........|...........|...........
|...........|...........|...........|...........
|...........|...........|...........|...........
|...........|...........|...........|...........
|...........|...........|...........|...........
|...........|...........|...........|...........
|E-501v42...|C#501v42...|C#601v38...|A#403v44...
|...........|...........|...........|...........
|...........|...........|...........|...........
|...........|...........|...........|...........
|...........|...........|...........|...........
|...........|...........|...........|...........
|===01......|===01......|...........|...........
|...........|...........|...........|...........
|...........|...........|...........|...........
|...........|...........|...........|...........
|...........|...........|...........|...........
|...........|...........|...........|...........
|...........|...........|C#501v56...|A-803v30...
|...........|...........|...........|...........
|...........|...........|...........|...........
|...........|...........|...........|...........
|...........|...........|...........|...........
|...........|...........|...........|...........
|...........|...........|===01......|...........
|...........|...........|...........|...........
|...........|...........|...........|...........
|...........|...........|...........|...........
|...........|...........|...........|...........
|...........|...........|...........|...........
|...........|...........|C#501v38...|A-803v30...
|...........|...........|...........|...........
|...........|...........|...........|...........
|...........|...........|...........|...........
|...........|...........|...........|...........
|...........|...........|...........|...........
|...........|...........|===01......|...........
|...........|...........|...........|...........
|...........|...........|...........|...........
|...........|...........|...........|...........
|...........|...........|...........|...........
|...........|...........|...........|...........
|...........|...........|E-501v56...|C-303v44...
|...........|...........|...........|...........
|...........|...........|...........|...........
|...........|...........|...........|...........
|...........|...........|...........|...........
|...........|...........|...........|...........
|...........|...........|...........|...........
|...........|...........|...........|...........
|...........|...........|...........|...........
|...........|...........|...........|...........
|...........|...........|...........|...........
|...........|...........|...........|...........
|F#501v42...|D-501v42...|E-501v38...|A-803v30...
|...........|...........|...........|...........
|...........|...........|...........|...........
|...........|...........|...........|...........
|...........|...........|...........|...........
|...........|...........|...........|...........
|...........|...........|...........|...........
|...........|...........|...........|...........
|...........|...........|...........|...........
|...........|...........|...........|...........
|...........|...........|...........|...........
|...........|...........|...........|...........
|...........|...........|E-601v56...|A#403v44...
|...........|...........|...........|...........
|...........|...........|...........|...........
|...........|...........|...........|...........
|...........|...........|...........|...........
|...........|...........|...........|...........
|...........|...........|...........|...........
|...........|...........|...........|...........
|...........|...........|...........|...........
|...........|...........|...........|...........
|...........|...........|...........|...........
|...........|...........|...........|...........
|...........|...........|E-501v56...|A-803v30...
|...........|...........|...........|...........
|...........|...........|...........|...........
|...........|...........|...........|...........
|...........|...........|...........|...........
|...........|...........|...........|...........
|...........|...........|...........|...........
|...........|...........|...........|...........
|...........|...........|...........|...........
|...........|...........|...........|...........
|...........|...........|...........|...........
|...........|...........|...........|...........
|E-501v42...|C#501v42...|G-501v56...|C-303v44...
|...........|...........|...........|...........
|...........|...........|...........|...........
|...........|...........|...........|...........
|...........|...........|...........|...........
|...........|...........|...........|...........
|===01......|===01......|===01......|...........
|...........|...........|...........|...........
|...........|...........|...........|...........
|...........|...........|...........|...........
|...........|...........|...........|...........
|...........|...........|...........|...........
|...........|...........|...........|A-803v30...
|...........|...........|...........|...........
|...........|...........|...........|...........
|...........|...........|...........|...........
|...........|...........|...........|...........
|...........|...........|...........|...........
|...........|...........|...........|...........
|...........|...........|...........|...........
|...........|...........|...........|...........
|...........|...........|...........|...........
|...........|...........|...........|...........
|...........|...........|...........|...........
|E-501v42...|C#501v42...|B-501v56...|A#403v44...
|...........|...........|...........|...........
|...........|...........|...........|...........
|...........|...........|...........|...........
|...........|...........|...........|...........
|...........|...........|...........|...........
|===01......|===01......|...........|...........
|...........|...........|...........|...........
|...........|...........|...........|...........
|...........|...........|...........|...........
|...........|...........|...........|...........
|...........|...........|...........|...........
|...........|...........|C#601v56...|A-803v30...
|...........|...........|...........|...........
|...........|...........|...........|...........
|...........|...........|...........|...........
|...........|...........|...........|...........
|...........|...........|...........|...........
|...........|...........|...........|...........
|...........|...........|...........|...........
|...........|...........|...........|...........
|...........|...........|...........|...........
|...........|...........|...........|...........
|...........|...........|...........|...........
|F#501v42...|D-501v42...|D-601v56...|C-303v44...
|...........|...........|...........|...........
|...........|...........|...........|...........
|...........|...........|...........|...........
|...........|...........|...........|...........
|...........|...........|...........|...........
|===01......|===01......|...........|...........
|...........|...........|...........|...........
|...........|...........|...........|...........
|...........|...........|...........|...........
|...........|...........|...........|...........
|...........|...........|...........|...........
|...........|...........|D-601v56...|A-803v30...
|...........|...........|...........|...........
|...........|...........|...........|...........
|...........|...........|...........|...........
|...........|...........|...........|...........
|...........|...........|...........|...........
|...........|...........|...........|...........
|...........|...........|...........|...........
|...........|...........|...........|...........
|...........|...........|...........|...........
|...........|...........|...........|...........
|...........|...........|...........|...........
|F#501v42...|D-501v42...|D-501v56...|A#403v44...
|...........|...........|...........|...........
|...........|...........|...........|...........
|...........|...........|...........|...........
|...........|...........|...........|...........
|...........|...........|...........|...........
|===01......|===01......|...........|...........
|...........|...........|...........|...........
|...........|...........|...........|...........
|...........|...........|...........|...........
|...........|...........|...........|...........
|...........|...........|...........|...........
|E-501v42...|C#501v42...|C#601v56...|C-303v44...
|...........|...........|...........|...........
|...........|...........|...........|...........
|...........|...........|...........|...........
|...........|...........|...........|...........
|...........|...........|...........|...........
|===01......|===01......|...........|...........
|...........|...........|...........|...........
|...........|...........|...........|...........
|...........|...........|...........|...........
|...........|...........|...........|...........
|...........|...........|...........|...........
|B-401v42...|...........|...........|...........
|...........|...........|.....v52...|...........
|...........|...........|.....v48...|...........
|...........|...........|.....v46...|...........
|...........|...........|.....v42...|...........
|...........|...........|.....v40...|...........
|E-401v42...|...........|.....v36...|...........
|...........|...........|.....v34...|...........
|...........|...........|.....v32...|...........
|...........|...........|.....v28...|...........
|...........|...........|.....v26...|...........
|...........|...........|.....v22...|...........
|G-401v42...|...........|.....v20...|...........
|...........|...........|.....v18...|...........
|...........|...........|.....v14...|...........
|...........|...........|.....v12...|...........
|...........|...........|.....v08...|...........
|...........|...........|.....v06...|...........
|E-401v42...|...........|.....v02...|...........
|...........|...........|...........|...........
|...........|...........|...........|...........
|...........|...........|...........|...........
|...........|...........|...........|...........
|...........|...........|...........|...........
|A-401v42...|...........|G-501v64...|...........
|...........|...........|...........|...........
|...........|...........|...........|...........
|...........|...........|A-501v64...|...........
|...........|...........|...........|...........
|...........|...........|...........|...........
|G-401v42...|...........|A#501v64...|...........
|...........|...........|...........|...........
|...........|...........|...........|...........
|...........|...........|B-501v64...|...........
|...........|...........|...........|...........
|...........|...........|...........|...........
|E-401v42...|...........|C-601v64...|...........
|...........|...........|...........|...........
|...........|...........|...........|...........
|...........|...........|C#601v64...|...........
|...........|...........|...........|...........
|...........|...........|...........|...........
|===01......|...........|D-601v64...|...........
|...........|...........|...........|...........
|...........|...........|...........|...........
|...........|...........|D#601v64...|...........
|...........|...........|...........|...........
|...........|...........|...........|...........
